<?xml version="1.0" encoding="UTF-8" standalone="no"?>
<svg
   width="44"
   height="44"
   viewBox="0 0 44 43.999999"
   fill="none"
   version="1.1"
   id="svg10"
   xmlns="http://www.w3.org/2000/svg"
   xmlns:svg="http://www.w3.org/2000/svg">
  <defs
     id="defs10" />
  <g
     id="g10"
     transform="translate(4.755713,4.755913)">
    <path
       d="m 27.998799,9.1777288 -13.4433,13.4433702 2.6886,2.6886 10.7547,-10.7546 2.6887,2.6886 -13.4434,13.4434 -10.7546503,-10.7547 -2.6886699,2.6887 10.7547202,10.7546 c 1.4832,1.4833 3.894,1.4833 5.3773,0 l 13.4433,-13.4433 c 1.4833,-1.4873 1.4833,-3.8941 0,-5.3773 z"
       fill="#247de3"
       id="path1" />
    <path
       d="m 17.244399,3.8011088 2.6887,2.6886699 -10.7546503,10.7547203 2.6886503,2.6886 13.4434,-13.4433203 -5.3774,-5.37733 c -1.4832,-1.48326495 -3.8941,-1.48326495 -5.3773,0 L 1.1124487,14.555799 c -1.48326495,1.4873 -1.48326495,3.8941 0,5.3773 z"
       fill="#28c9db"
       id="path2" />
  </g>
</svg>
